<mxfile host="app.diagrams.net" modified="2023-02-23T09:32:26.897Z" agent="5.0 (Macintosh; Intel Mac OS X 10_15_7) AppleWebKit/605.1.15 (KHTML, like Gecko) Version/16.2 Safari/605.1.15" etag="DPZKTkYEA0Jw3DGgOChe" version="20.8.23" type="github">
  <diagram id="F--a-3hmtZKvsPh1SgEa" name="Page-1">
    <mxGraphModel dx="1224" dy="667" grid="0" gridSize="10" guides="1" tooltips="1" connect="1" arrows="1" fold="1" page="1" pageScale="1" pageWidth="827" pageHeight="1169" math="0" shadow="0">
      <root>
        <mxCell id="0" />
        <mxCell id="1" parent="0" />
        <mxCell id="5" value="text, image/video&lt;br&gt;topic, categories, visibility" style="text;html=1;align=center;verticalAlign=middle;resizable=0;points=[];autosize=1;strokeColor=none;fillColor=none;" parent="1" vertex="1">
          <mxGeometry x="150" y="400" width="160" height="40" as="geometry" />
        </mxCell>
        <mxCell id="f7tlU9r_WrtrK81TpgJr-44" style="edgeStyle=orthogonalEdgeStyle;rounded=0;orthogonalLoop=1;jettySize=auto;html=1;exitX=1;exitY=0.25;exitDx=0;exitDy=0;entryX=0;entryY=0.5;entryDx=0;entryDy=0;" parent="1" source="f7tlU9r_WrtrK81TpgJr-42" target="f7tlU9r_WrtrK81TpgJr-43" edge="1">
          <mxGeometry relative="1" as="geometry">
            <Array as="points">
              <mxPoint x="190" y="515" />
              <mxPoint x="190" y="440" />
            </Array>
          </mxGeometry>
        </mxCell>
        <mxCell id="f7tlU9r_WrtrK81TpgJr-46" style="edgeStyle=orthogonalEdgeStyle;rounded=0;orthogonalLoop=1;jettySize=auto;html=1;exitX=1;exitY=0.75;exitDx=0;exitDy=0;entryX=0;entryY=0.5;entryDx=0;entryDy=0;" parent="1" source="f7tlU9r_WrtrK81TpgJr-42" target="f7tlU9r_WrtrK81TpgJr-45" edge="1">
          <mxGeometry relative="1" as="geometry" />
        </mxCell>
        <mxCell id="f7tlU9r_WrtrK81TpgJr-42" value="User post" style="rounded=0;whiteSpace=wrap;html=1;" parent="1" vertex="1">
          <mxGeometry x="20" y="500" width="120" height="60" as="geometry" />
        </mxCell>
        <mxCell id="f7tlU9r_WrtrK81TpgJr-57" style="edgeStyle=orthogonalEdgeStyle;rounded=0;orthogonalLoop=1;jettySize=auto;html=1;exitX=0;exitY=0;exitDx=0;exitDy=0;entryX=0.25;entryY=1;entryDx=0;entryDy=0;" parent="1" source="f7tlU9r_WrtrK81TpgJr-43" target="f7tlU9r_WrtrK81TpgJr-55" edge="1">
          <mxGeometry relative="1" as="geometry">
            <Array as="points">
              <mxPoint x="322" y="380" />
              <mxPoint x="231" y="380" />
            </Array>
          </mxGeometry>
        </mxCell>
        <mxCell id="f7tlU9r_WrtrK81TpgJr-61" style="edgeStyle=orthogonalEdgeStyle;rounded=0;orthogonalLoop=1;jettySize=auto;html=1;exitX=1;exitY=0;exitDx=0;exitDy=0;entryX=0.75;entryY=1;entryDx=0;entryDy=0;" parent="1" source="f7tlU9r_WrtrK81TpgJr-43" target="f7tlU9r_WrtrK81TpgJr-56" edge="1">
          <mxGeometry relative="1" as="geometry">
            <Array as="points">
              <mxPoint x="378" y="380" />
              <mxPoint x="490" y="380" />
            </Array>
          </mxGeometry>
        </mxCell>
        <mxCell id="f7tlU9r_WrtrK81TpgJr-76" style="edgeStyle=orthogonalEdgeStyle;rounded=0;orthogonalLoop=1;jettySize=auto;html=1;exitX=1;exitY=0.5;exitDx=0;exitDy=0;entryX=0.5;entryY=0;entryDx=0;entryDy=0;entryPerimeter=0;" parent="1" source="f7tlU9r_WrtrK81TpgJr-43" target="f7tlU9r_WrtrK81TpgJr-54" edge="1">
          <mxGeometry relative="1" as="geometry" />
        </mxCell>
        <mxCell id="f7tlU9r_WrtrK81TpgJr-43" value="posting&lt;br&gt;buzzes" style="ellipse;whiteSpace=wrap;html=1;aspect=fixed;" parent="1" vertex="1">
          <mxGeometry x="310" y="400" width="80" height="80" as="geometry" />
        </mxCell>
        <mxCell id="f7tlU9r_WrtrK81TpgJr-52" style="edgeStyle=orthogonalEdgeStyle;rounded=0;orthogonalLoop=1;jettySize=auto;html=1;exitX=1;exitY=0.5;exitDx=0;exitDy=0;entryX=0;entryY=0.5;entryDx=0;entryDy=0;" parent="1" source="f7tlU9r_WrtrK81TpgJr-45" target="f7tlU9r_WrtrK81TpgJr-53" edge="1">
          <mxGeometry relative="1" as="geometry">
            <mxPoint x="400" y="649.8333333333335" as="targetPoint" />
          </mxGeometry>
        </mxCell>
        <mxCell id="f7tlU9r_WrtrK81TpgJr-75" style="edgeStyle=orthogonalEdgeStyle;rounded=0;orthogonalLoop=1;jettySize=auto;html=1;exitX=1;exitY=1;exitDx=0;exitDy=0;entryX=0.731;entryY=-0.025;entryDx=0;entryDy=0;entryPerimeter=0;" parent="1" source="f7tlU9r_WrtrK81TpgJr-45" target="f7tlU9r_WrtrK81TpgJr-70" edge="1">
          <mxGeometry relative="1" as="geometry" />
        </mxCell>
        <mxCell id="RhDYi2bSiW6wI90DA4dT-6" style="edgeStyle=orthogonalEdgeStyle;rounded=0;orthogonalLoop=1;jettySize=auto;html=1;entryX=0.5;entryY=0;entryDx=0;entryDy=0;" edge="1" parent="1" target="f7tlU9r_WrtrK81TpgJr-45">
          <mxGeometry relative="1" as="geometry">
            <mxPoint x="281" y="560" as="targetPoint" />
            <mxPoint x="281" y="560" as="sourcePoint" />
          </mxGeometry>
        </mxCell>
        <mxCell id="f7tlU9r_WrtrK81TpgJr-45" value="Rebuzz" style="ellipse;whiteSpace=wrap;html=1;aspect=fixed;" parent="1" vertex="1">
          <mxGeometry x="241.25" y="610" width="80" height="80" as="geometry" />
        </mxCell>
        <mxCell id="f7tlU9r_WrtrK81TpgJr-48" value="" style="edgeStyle=orthogonalEdgeStyle;rounded=0;orthogonalLoop=1;jettySize=auto;html=1;" parent="1" target="f7tlU9r_WrtrK81TpgJr-43" edge="1">
          <mxGeometry relative="1" as="geometry">
            <mxPoint x="350.0999999999999" y="530" as="sourcePoint" />
          </mxGeometry>
        </mxCell>
        <mxCell id="f7tlU9r_WrtrK81TpgJr-50" value="current user id" style="text;html=1;align=center;verticalAlign=middle;resizable=0;points=[];autosize=1;strokeColor=none;fillColor=none;" parent="1" vertex="1">
          <mxGeometry x="270" y="530" width="100" height="30" as="geometry" />
        </mxCell>
        <mxCell id="f7tlU9r_WrtrK81TpgJr-77" style="edgeStyle=orthogonalEdgeStyle;rounded=0;orthogonalLoop=1;jettySize=auto;html=1;exitX=1;exitY=0.5;exitDx=0;exitDy=0;entryX=0.5;entryY=1;entryDx=0;entryDy=0;entryPerimeter=0;" parent="1" source="f7tlU9r_WrtrK81TpgJr-53" target="f7tlU9r_WrtrK81TpgJr-54" edge="1">
          <mxGeometry relative="1" as="geometry" />
        </mxCell>
        <mxCell id="f7tlU9r_WrtrK81TpgJr-53" value="Mentioning system" style="ellipse;whiteSpace=wrap;html=1;aspect=fixed;" parent="1" vertex="1">
          <mxGeometry x="415" y="610" width="80" height="80" as="geometry" />
        </mxCell>
        <mxCell id="f7tlU9r_WrtrK81TpgJr-54" value="display on &lt;br&gt;the buzz page" style="shape=card;whiteSpace=wrap;html=1;" parent="1" vertex="1">
          <mxGeometry x="495" y="500" width="100" height="60" as="geometry" />
        </mxCell>
        <mxCell id="f7tlU9r_WrtrK81TpgJr-60" style="edgeStyle=orthogonalEdgeStyle;rounded=0;orthogonalLoop=1;jettySize=auto;html=1;exitX=0.75;exitY=1;exitDx=0;exitDy=0;entryX=0.438;entryY=0.004;entryDx=0;entryDy=0;entryPerimeter=0;" parent="1" source="f7tlU9r_WrtrK81TpgJr-55" target="f7tlU9r_WrtrK81TpgJr-43" edge="1">
          <mxGeometry relative="1" as="geometry" />
        </mxCell>
        <mxCell id="f7tlU9r_WrtrK81TpgJr-55" value="Buzz entity (database)" style="shape=partialRectangle;whiteSpace=wrap;html=1;left=0;right=0;fillColor=none;rounded=0;strokeColor=default;fontFamily=Helvetica;fontSize=12;fontColor=default;" parent="1" vertex="1">
          <mxGeometry x="201.25" y="280" width="120" height="40" as="geometry" />
        </mxCell>
        <mxCell id="f7tlU9r_WrtrK81TpgJr-62" style="edgeStyle=orthogonalEdgeStyle;rounded=0;orthogonalLoop=1;jettySize=auto;html=1;exitX=0.25;exitY=1;exitDx=0;exitDy=0;entryX=0.575;entryY=0.007;entryDx=0;entryDy=0;entryPerimeter=0;" parent="1" source="f7tlU9r_WrtrK81TpgJr-56" target="f7tlU9r_WrtrK81TpgJr-43" edge="1">
          <mxGeometry relative="1" as="geometry" />
        </mxCell>
        <mxCell id="f7tlU9r_WrtrK81TpgJr-56" value="cloud" style="shape=partialRectangle;whiteSpace=wrap;html=1;left=0;right=0;fillColor=none;rounded=0;strokeColor=default;fontFamily=Helvetica;fontSize=12;fontColor=default;" parent="1" vertex="1">
          <mxGeometry x="400" y="280" width="120" height="40" as="geometry" />
        </mxCell>
        <mxCell id="f7tlU9r_WrtrK81TpgJr-63" value="image/video" style="text;html=1;align=center;verticalAlign=middle;resizable=0;points=[];autosize=1;strokeColor=none;fillColor=none;" parent="1" vertex="1">
          <mxGeometry x="410" y="380" width="90" height="30" as="geometry" />
        </mxCell>
        <mxCell id="f7tlU9r_WrtrK81TpgJr-64" value="url" style="text;html=1;align=center;verticalAlign=middle;resizable=0;points=[];autosize=1;strokeColor=none;fillColor=none;" parent="1" vertex="1">
          <mxGeometry x="390" y="335" width="40" height="30" as="geometry" />
        </mxCell>
        <mxCell id="f7tlU9r_WrtrK81TpgJr-65" value="buzz id" style="text;html=1;align=center;verticalAlign=middle;resizable=0;points=[];autosize=1;strokeColor=none;fillColor=none;" parent="1" vertex="1">
          <mxGeometry x="290" y="330" width="60" height="30" as="geometry" />
        </mxCell>
        <mxCell id="f7tlU9r_WrtrK81TpgJr-66" value="text, user id&lt;br&gt;&lt;span style=&quot;color: rgba(0, 0, 0, 0); font-family: monospace; font-size: 0px; text-align: start;&quot;&gt;%3CmxGraphModel%3E%3Croot%3E%3CmxCell%20id%3D%220%22%2F%3E%3CmxCell%20id%3D%221%22%20parent%3D%220%22%2F%3E%3CmxCell%20id%3D%222%22%20value%3D%22cloud%22%20style%3D%22shape%3DpartialRectangle%3BwhiteSpace%3Dwrap%3Bhtml%3D1%3Bleft%3D0%3Bright%3D0%3BfillColor%3Dnone%3Brounded%3D0%3BstrokeColor%3Ddefault%3BfontFamily%3DHelvetica%3BfontSize%3D12%3BfontColor%3Ddefault%3B%22%20vertex%3D%221%22%20parent%3D%221%22%3E%3CmxGeometry%20x%3D%22322.5%22%20y%3D%2260%22%20width%3D%22120%22%20height%3D%2240%22%20as%3D%22geometry%22%2F%3E%3C%2FmxCell%3E%3C%2Froot%3E%3C%2FmxGraphModel%3E&lt;/span&gt;topic,&amp;nbsp;categories, url, visibility" style="text;html=1;align=center;verticalAlign=middle;resizable=0;points=[];autosize=1;strokeColor=none;fillColor=none;" parent="1" vertex="1">
          <mxGeometry x="61.25" y="320" width="180" height="40" as="geometry" />
        </mxCell>
        <mxCell id="f7tlU9r_WrtrK81TpgJr-68" value="buzz id, &lt;br&gt;buzz&#39;s user id" style="text;html=1;align=center;verticalAlign=middle;resizable=0;points=[];autosize=1;strokeColor=none;fillColor=none;" parent="1" vertex="1">
          <mxGeometry x="101.25" y="570" width="100" height="40" as="geometry" />
        </mxCell>
        <mxCell id="f7tlU9r_WrtrK81TpgJr-74" style="edgeStyle=orthogonalEdgeStyle;rounded=0;orthogonalLoop=1;jettySize=auto;html=1;exitX=0.25;exitY=0;exitDx=0;exitDy=0;entryX=0.126;entryY=0.821;entryDx=0;entryDy=0;entryPerimeter=0;" parent="1" source="f7tlU9r_WrtrK81TpgJr-70" target="f7tlU9r_WrtrK81TpgJr-45" edge="1">
          <mxGeometry relative="1" as="geometry" />
        </mxCell>
        <mxCell id="f7tlU9r_WrtrK81TpgJr-70" value="Buzz entity (database)" style="shape=partialRectangle;whiteSpace=wrap;html=1;left=0;right=0;fillColor=none;rounded=0;strokeColor=default;fontFamily=Helvetica;fontSize=12;fontColor=default;" parent="1" vertex="1">
          <mxGeometry x="221.25" y="750" width="120" height="40" as="geometry" />
        </mxCell>
        <mxCell id="f7tlU9r_WrtrK81TpgJr-73" value="current user id,&lt;br&gt;buzz id" style="text;html=1;align=center;verticalAlign=middle;resizable=0;points=[];autosize=1;strokeColor=none;fillColor=none;" parent="1" vertex="1">
          <mxGeometry x="310" y="700" width="100" height="40" as="geometry" />
        </mxCell>
        <mxCell id="f7tlU9r_WrtrK81TpgJr-80" value="current user id,&lt;br&gt;buzz&#39;s user id,&amp;nbsp;&lt;br&gt;new buzz id" style="text;html=1;align=center;verticalAlign=middle;resizable=0;points=[];autosize=1;strokeColor=none;fillColor=none;" parent="1" vertex="1">
          <mxGeometry x="315" y="627" width="100" height="60" as="geometry" />
        </mxCell>
        <mxCell id="f7tlU9r_WrtrK81TpgJr-81" value="new buzz id" style="text;html=1;align=center;verticalAlign=middle;resizable=0;points=[];autosize=1;strokeColor=none;fillColor=none;" parent="1" vertex="1">
          <mxGeometry x="170" y="700" width="90" height="30" as="geometry" />
        </mxCell>
      </root>
    </mxGraphModel>
  </diagram>
</mxfile>
